<?xml version="1.0" encoding="utf-8"?>
<!-- Svg Vector Icons : http://www.onlinewebfonts.com/icon -->
<!DOCTYPE svg PUBLIC "-//W3C//DTD SVG 1.1//EN" "http://www.w3.org/Graphics/SVG/1.1/DTD/svg11.dtd">
<svg version="1.1" xmlns="http://www.w3.org/2000/svg" xmlns:xlink="http://www.w3.org/1999/xlink" x="0px" y="0px" viewBox="0 0 256 256" enable-background="new 0 0 256 256" xml:space="preserve">
<metadata> Svg Vector Icons : http://www.onlinewebfonts.com/icon </metadata>
<g><g><path fill="#000000" d="M243.7,69.1c-5.2,11-28.2,64.1-31.3,69c-0.4,0.6-0.7,1.2-1,1.7c-3.1,5.2-6.3,9.2-17.4,9.2H87.7c2.2,6.8,6.9,15.1,16.5,15.1h91.9c2.7,0,4.9,2.2,4.9,4.9c0,2.7-2.2,4.9-4.9,4.9h-91.9c-13.6,0-23.6-10.7-27.3-27c-2-9-26.9-92.3-28.7-98.8C46.3,44,41.9,41,37.5,41H14.9c-2.7,0-4.9-2.2-4.9-4.9c0-2.7,2.2-4.9,4.9-4.9h22.6c8.4,0,16.4,0.5,19.8,8.5c0.1,0.2,0.2,0.4,0.2,0.6c1,3.6,21.6,76.7,27.5,98.9h108.8c6.4,0,7-1.1,8.9-4.4c0.4-0.7,0.8-1.3,1.2-2c2.9-4.6,25.7-57.4,30.6-67.6c2-5.3,1.7-8.2,1.1-9c-0.4-0.5-1.5-0.8-3.2-0.8c-10.6,0.2-145.8,0-150.5,0c-2.7,0-4.9-2.2-4.9-4.9s2.2-4.9,4.9-4.9l0,0c1.2,0,139.7,0.2,150.4,0c6.5,0,9.7,2.8,11.3,5.1C246.8,54.9,246.7,61.1,243.7,69.1z M101.6,178.8c12.7,0,23,10.3,23,23c0,12.7-10.3,23-23,23c-12.7,0-23-10.3-23-23S88.9,178.8,101.6,178.8z M101.6,215.4c7.5,0,13.5-6.1,13.5-13.5s-6.1-13.5-13.5-13.5c-7.5,0-13.5,6.1-13.5,13.5C88.1,209.3,94.2,215.4,101.6,215.4z"/><path fill="#000000" d="M195.1,178.8c12.7,0,23,10.3,23,23c0,12.7-10.3,23-23,23s-23-10.3-23-23S182.5,178.8,195.1,178.8z M195.1,215.4c7.5,0,13.5-6.1,13.5-13.5s-6.1-13.5-13.5-13.5s-13.5,6.1-13.5,13.5S187.7,215.4,195.1,215.4z"/></g></g>
</svg>